<svg width="20" height="20" viewBox="0 0 20 20" fill="none" xmlns="http://www.w3.org/2000/svg">
<path fill-rule="evenodd" clip-rule="evenodd" d="M11 0C12.5977 0 13.9037 1.24892 13.9949 2.82373L14 3L14 6L17 6C18.5977 6 19.9037 7.24892 19.9949 8.82373L20 9V17C20 18.5977 18.7511 19.9037 17.1763 19.9949L17 20H9C7.40232 20 6.09634 18.7511 6.00509 17.1763L6 17L6 14L3 14C1.40232 14 0.0963391 12.7511 0.00509269 11.1763L0 11L0 3C0 1.40232 1.24892 0.0963391 2.82373 0.00509269L3 0L11 0ZM17 8L14 8L14 11C14 12.5977 12.7511 13.9037 11.1763 13.9949L11 14L8 14V17C8 17.5128 8.38604 17.9355 8.88338 17.9933L9 18H17C17.5128 18 17.9355 17.614 17.9933 17.1166L18 17V9C18 8.48716 17.614 8.06449 17.1166 8.00673L17 8ZM11 2L3 2C2.48716 2 2.06449 2.38604 2.00673 2.88338L2 3L2 11C2 11.5128 2.38604 11.9355 2.88338 11.9933L3 12L6 12L6 9C6 7.40232 7.24892 6.09634 8.82373 6.00509L9 6L12 6L12 3C12 2.48716 11.614 2.06449 11.1166 2.00673L11 2Z" fill="#1A1A1A"/>
</svg>
