<svg width="16" height="16" viewBox="0 0 16 16" fill="none" xmlns="http://www.w3.org/2000/svg">
<path fill-rule="evenodd" clip-rule="evenodd" d="M7.70742 3.29272L7.79061 3.38693C8.07024 3.74653 8.07024 4.25312 7.79061 4.61271L7.70742 4.70692L7.61321 4.79011C7.25358 5.06971 6.74694 5.06971 6.38732 4.79011L6.2931 4.70692L4.99976 3.41469L5.00012 12.9997C5.00012 13.5125 4.61408 13.9352 4.11674 13.993L4.00012 13.9997L3.88335 13.993C3.42427 13.9396 3.06002 13.5754 3.0067 13.1163L2.99997 12.9997L2.99976 3.41469L1.70699 4.70692L1.61277 4.79011C1.22045 5.09513 0.65318 5.0674 0.29267 4.70692C-0.0678398 4.34644 -0.0955713 3.77922 0.209476 3.38693L0.29267 3.29272L3.29287 0.292766L3.41333 0.189936L3.49588 0.135962L3.61375 0.0771872L3.71243 0.0419064L3.85101 0.0108925L3.94623 0.00105286L4.05421 0.00133181L4.14852 0.0108908L4.28793 0.041992L4.41457 0.0895339L4.51964 0.145244L4.60178 0.200995L4.66557 0.253417L4.70722 0.292766L7.70742 3.29272L7.79061 3.38693L7.70742 3.29272ZM15.7905 12.6131L15.7073 12.7073L12.7071 15.7072L12.6216 15.7835L12.5512 15.8346L12.4541 15.8913L12.3812 15.9249L12.3137 15.9499L12.2622 15.9653L12.1484 15.9891L12.0541 15.9987L11.9252 15.9971L11.8509 15.9891L11.7123 15.9581L11.5868 15.9111L11.4958 15.864L11.4132 15.8101L11.3702 15.7761L11.2928 15.7072L8.29257 12.7073C7.90201 12.3168 7.90201 11.6836 8.29257 11.2931C8.65308 10.9326 9.22035 10.9049 9.61267 11.2099L9.70688 11.2931L10.9997 12.5853L10.9999 3.00031C10.9999 2.48747 11.3859 2.0648 11.8832 2.00703L12 2.00031C12.5523 2.00031 13 2.44802 13 3.00031L12.9997 12.5853L14.293 11.2931C14.6535 10.9326 15.2208 10.9049 15.6131 11.2099L15.7073 11.2931C16.0678 11.6536 16.0956 12.2208 15.7905 12.6131Z" fill="#008556"/>
</svg>
