<svg width="20" height="20" viewBox="0 0 20 20" focusable="false" aria-hidden="true" fill="currentColor" xmlns="http://www.w3.org/2000/svg">
<path fill-rule="evenodd" clip-rule="evenodd" d="M17 0C18.6569 0 20 1.34315 20 3L20 17C20 18.6569 18.6569 20 17 20L3 20C1.34315 20 0 18.6569 0 17L0 3C0 1.34315 1.34315 0 3 0L17 0ZM18 6L2 6L2 17C2 17.5523 2.44772 18 3 18L17 18C17.5523 18 18 17.5523 18 17L18 6ZM10.1168 15.9933L10.0001 16L9.916 15.996L9.79937 15.9798L9.68795 15.9503L9.57687 15.9063L9.47938 15.854L9.40492 15.8037L9.29298 15.7071L6.2929 12.7071C5.90237 12.3166 5.90237 11.6834 6.2929 11.2929C6.65339 10.9324 7.22064 10.9047 7.61294 11.2097L7.70715 11.2929L9 12.585L9.00008 9C9.00008 8.48716 9.38612 8.06449 9.88346 8.00673L10.0001 8C10.5524 8 11.0001 8.44771 11.0001 9L11 12.585L12.2931 11.2929C12.6535 10.9324 13.2208 10.9047 13.6131 11.2097L13.7073 11.2929C14.0678 11.6534 14.0955 12.2206 13.7905 12.6129L13.7073 12.7071L10.7072 15.7071L10.6217 15.7834L10.5519 15.8341L10.454 15.8913L10.3401 15.9407L10.2661 15.9642L10.1168 15.9933ZM17 2L3 2C2.44772 2 2 2.44772 2 3V4L18 4V3C18 2.44772 17.5523 2 17 2Z"/>
</svg>
