<svg width="8" height="12" viewBox="0 0 8 12" fill="none" xmlns="http://www.w3.org/2000/svg">
<path fill-rule="evenodd" clip-rule="evenodd" d="M4.70711 7.29289L7.70711 10.2929C8.09763 10.6834 8.09763 11.3166 7.70711 11.7071C7.31658 12.0976 6.68342 12.0976 6.29289 11.7071L4 9.41421L1.70711 11.7071C1.31658 12.0976 0.683417 12.0976 0.292893 11.7071C-0.0976311 11.3166 -0.0976311 10.6834 0.292893 10.2929L3.29289 7.29289C3.68342 6.90237 4.31658 6.90237 4.70711 7.29289ZM0.292893 0.292893C0.653377 -0.0675907 1.22061 -0.0953203 1.6129 0.209705L1.70711 0.292893L4 2.58579L6.29289 0.292893C6.68342 -0.0976311 7.31658 -0.0976311 7.70711 0.292893C8.06759 0.653377 8.09532 1.22061 7.7903 1.6129L7.70711 1.70711L4.70711 4.70711C4.34662 5.06759 3.77939 5.09532 3.3871 4.7903L3.29289 4.70711L0.292893 1.70711C-0.0976311 1.31658 -0.0976311 0.683418 0.292893 0.292893Z" fill="#2C5DE5"/>
</svg>
