<svg width="20" height="20" aria-hidden="true" fill="currentColor" viewBox="0 0 20 20" xmlns="http://www.w3.org/2000/svg">
<path fill-rule="evenodd" clip-rule="evenodd" d="M18 13C18 13.551 17.551 14 17 14H13C12.685 14 12.389 14.148 12.2 14.4L10 17.333L7.8 14.4C7.611 14.148 7.315 14 7 14L3 14C2.449 14 2 13.551 2 13L2 3C2 2.449 2.449 2 3 2L17 2C17.551 2 18 2.449 18 3L18 13ZM17 0L3 0C1.346 0 0 1.346 0 3L0 13C0 14.654 1.346 16 3 16L6.5 16L9.2 19.6C9.389 19.852 9.685 20 10 20C10.315 20 10.611 19.852 10.8 19.6L13.5 16H17C18.654 16 20 14.654 20 13L20 3C20 1.346 18.654 0 17 0ZM15 5L5 5C4.448 5 4 5.448 4 6C4 6.552 4.448 7 5 7L15 7C15.552 7 16 6.552 16 6C16 5.448 15.552 5 15 5ZM5 9L15 9C15.552 9 16 9.448 16 10C16 10.552 15.552 11 15 11L5 11C4.448 11 4 10.552 4 10C4 9.448 4.448 9 5 9Z"/>
</svg>
